<svg width="32" height="32" viewBox="0 0 32 32" fill="none" xmlns="http://www.w3.org/2000/svg">
<g id="user-rounded">
<path id="Vector" d="M16.0001 2.6665C14.2491 2.6665 12.5153 3.01138 10.8976 3.68144C9.27996 4.35151 7.81011 5.33363 6.57199 6.57175C4.07151 9.07223 2.66675 12.4636 2.66675 15.9998C2.66675 19.5361 4.07151 22.9274 6.57199 25.4279C7.81011 26.666 9.27996 27.6482 10.8976 28.3182C12.5153 28.9883 14.2491 29.3332 16.0001 29.3332C19.5363 29.3332 22.9277 27.9284 25.4282 25.4279C27.9287 22.9274 29.3334 19.5361 29.3334 15.9998C29.3334 14.2489 28.9885 12.5151 28.3185 10.8974C27.6484 9.27972 26.6663 7.80986 25.4282 6.57175C24.1901 5.33363 22.7202 4.35151 21.1025 3.68144C19.4849 3.01138 17.751 2.6665 16.0001 2.6665ZM9.42675 24.3732C10.0001 23.1732 13.4934 21.9998 16.0001 21.9998C18.5067 21.9998 22.0001 23.1732 22.5734 24.3732C20.7059 25.8612 18.3879 26.6699 16.0001 26.6665C13.5201 26.6665 11.2401 25.8132 9.42675 24.3732ZM24.4801 22.4398C22.5734 20.1198 17.9467 19.3332 16.0001 19.3332C14.0534 19.3332 9.42675 20.1198 7.52008 22.4398C6.10166 20.5927 5.33297 18.3288 5.33341 15.9998C5.33341 10.1198 10.1201 5.33317 16.0001 5.33317C21.8801 5.33317 26.6667 10.1198 26.6667 15.9998C26.6667 18.4265 25.8401 20.6665 24.4801 22.4398ZM16.0001 7.99984C13.4134 7.99984 11.3334 10.0798 11.3334 12.6665C11.3334 15.2532 13.4134 17.3332 16.0001 17.3332C18.5867 17.3332 20.6667 15.2532 20.6667 12.6665C20.6667 10.0798 18.5867 7.99984 16.0001 7.99984ZM16.0001 14.6665C15.4696 14.6665 14.9609 14.4558 14.5859 14.0807C14.2108 13.7056 14.0001 13.1969 14.0001 12.6665C14.0001 12.1361 14.2108 11.6274 14.5859 11.2523C14.9609 10.8772 15.4696 10.6665 16.0001 10.6665C16.5305 10.6665 17.0392 10.8772 17.4143 11.2523C17.7894 11.6274 18.0001 12.1361 18.0001 12.6665C18.0001 13.1969 17.7894 13.7056 17.4143 14.0807C17.0392 14.4558 16.5305 14.6665 16.0001 14.6665Z" fill="#FEFEFE"/>
</g>
</svg>
